<svg width="130" height="24" viewBox="0 0 130 24" fill="none" xmlns="http://www.w3.org/2000/svg">
<g clip-path="url(#clip0_488_3108)">
<path d="M10 4L12 5L14 4M12 2V8.5L15 10.22" stroke="#00B4BF" stroke-width="2" stroke-linecap="round" stroke-linejoin="round"/>
<path d="M17.9281 6.26794L18.0621 8.5L19.9281 9.73205M20.6602 7L15.031 10.25L15.0414 13.7081" stroke="#00B4BF" stroke-width="2" stroke-linecap="round" stroke-linejoin="round"/>
<path d="M19.9281 14.2679L18.0621 15.5L17.9281 17.732M20.6602 17L15.031 13.75L12.0414 15.4881" stroke="#00B4BF" stroke-width="2" stroke-linecap="round" stroke-linejoin="round"/>
<path d="M14 20L12 19L10 20M12 22V15.5L9 13.78" stroke="#00B4BF" stroke-width="2" stroke-linecap="round" stroke-linejoin="round"/>
<path d="M6.07189 17.7321L5.93792 15.5L4.07189 14.268M3.33984 17L8.96901 13.75L8.95857 10.2919" stroke="#00B4BF" stroke-width="2" stroke-linecap="round" stroke-linejoin="round"/>
<path d="M4.07189 9.73206L5.93792 8.5L6.07189 6.26795M3.33984 7L8.96901 10.25L11.9586 8.51193" stroke="#00B4BF" stroke-width="2" stroke-linecap="round" stroke-linejoin="round"/>
</g>
<path d="M39.432 17L38.6 14.28H34.44L33.608 17H31L35.032 5.528H37.992L42.04 17H39.432ZM37.192 9.592C37.1387 9.41067 37.0693 9.18133 36.984 8.904C36.8987 8.62667 36.8133 8.344 36.728 8.056C36.6427 7.768 36.5733 7.51733 36.52 7.304C36.4667 7.51733 36.392 7.784 36.296 8.104C36.2107 8.41333 36.1253 8.712 36.04 9C35.9653 9.27733 35.9067 9.47467 35.864 9.592L35.048 12.248H38.024L37.192 9.592ZM52.8469 1.816C52.7935 2.37067 52.6389 2.86133 52.3829 3.288C52.1269 3.704 51.7269 4.02933 51.1829 4.264C50.6389 4.49867 49.9082 4.616 48.9909 4.616C48.0522 4.616 47.3162 4.504 46.7829 4.28C46.2602 4.04533 45.8869 3.72 45.6629 3.304C45.4389 2.888 45.3055 2.392 45.2629 1.816H47.3909C47.4442 2.40267 47.5935 2.792 47.8389 2.984C48.0842 3.176 48.4842 3.272 49.0389 3.272C49.4975 3.272 49.8709 3.17067 50.1589 2.968C50.4575 2.75467 50.6335 2.37067 50.6869 1.816H52.8469ZM43.6469 5.576H45.8229V11.096C45.8229 11.3627 45.8175 11.6613 45.8069 11.992C45.7962 12.3227 45.7855 12.648 45.7749 12.968C45.7642 13.2773 45.7535 13.5493 45.7429 13.784C45.7322 14.008 45.7215 14.1627 45.7109 14.248H45.7589L51.0389 5.576H53.9349V17H51.7749V11.512C51.7749 11.224 51.7802 10.9093 51.7909 10.568C51.8015 10.216 51.8122 9.88 51.8229 9.56C51.8442 9.24 51.8602 8.96267 51.8709 8.728C51.8922 8.48267 51.9082 8.32267 51.9189 8.248H51.8549L46.5589 17H43.6469V5.576ZM61.8267 7.432C61.3681 7.432 60.9574 7.52267 60.5947 7.704C60.2428 7.88533 59.9441 8.14667 59.6988 8.488C59.4534 8.81867 59.2667 9.224 59.1387 9.704C59.0214 10.184 58.9627 10.7227 58.9627 11.32C58.9627 12.1307 59.0587 12.824 59.2507 13.4C59.4534 13.9653 59.7681 14.3973 60.1947 14.696C60.6214 14.9947 61.1654 15.144 61.8267 15.144C62.2961 15.144 62.7601 15.0907 63.2188 14.984C63.6881 14.8773 64.1948 14.728 64.7388 14.536V16.568C64.2374 16.7707 63.7414 16.92 63.2508 17.016C62.7601 17.112 62.2107 17.16 61.6027 17.16C60.4294 17.16 59.4588 16.92 58.6907 16.44C57.9334 15.9493 57.3734 15.2667 57.0107 14.392C56.6481 13.5067 56.4667 12.4773 56.4667 11.304C56.4667 10.44 56.5841 9.65067 56.8187 8.936C57.0534 8.21067 57.3947 7.58667 57.8427 7.064C58.3014 6.54133 58.8614 6.136 59.5227 5.848C60.1947 5.56 60.9627 5.416 61.8267 5.416C62.3921 5.416 62.9574 5.49067 63.5227 5.64C64.0988 5.77867 64.6481 5.97067 65.1708 6.216L64.3868 8.184C63.9601 7.98133 63.5281 7.80533 63.0908 7.656C62.6641 7.50667 62.2427 7.432 61.8267 7.432ZM72.9237 17V5.576H80.1397V7.576H75.3397V9.96H76.2997C77.3771 9.96 78.2571 10.1093 78.9397 10.408C79.6331 10.7067 80.1451 11.1173 80.4757 11.64C80.8064 12.1627 80.9718 12.76 80.9718 13.432C80.9718 14.1787 80.8064 14.8187 80.4757 15.352C80.1451 15.8853 79.6331 16.296 78.9397 16.584C78.2464 16.8613 77.3504 17 76.2517 17H72.9237ZM76.1557 15.016C76.8917 15.016 77.4677 14.8987 77.8837 14.664C78.3104 14.4293 78.5237 14.0187 78.5237 13.432C78.5237 13.0267 78.4171 12.7173 78.2037 12.504C78.0011 12.2907 77.7077 12.1467 77.3237 12.072C76.9504 11.9867 76.4971 11.944 75.9637 11.944H75.3397V15.016H76.1557ZM86.1669 7.432C85.6549 7.432 85.1482 7.50667 84.6469 7.656C84.1455 7.79467 83.6549 7.96533 83.1749 8.168L82.4069 6.216C82.9722 5.97067 83.5695 5.77867 84.1989 5.64C84.8282 5.49067 85.5002 5.416 86.2149 5.416C87.0575 5.416 87.8042 5.54933 88.4549 5.816C89.1162 6.072 89.6709 6.456 90.1189 6.968C90.5775 7.46933 90.9242 8.088 91.1589 8.824C91.4042 9.54933 91.5269 10.376 91.5269 11.304C91.5269 12.4773 91.3295 13.5067 90.9349 14.392C90.5402 15.2667 89.9322 15.9493 89.1109 16.44C88.3002 16.92 87.2602 17.16 85.9909 17.16C85.3402 17.16 84.7482 17.112 84.2149 17.016C83.6922 16.92 83.1589 16.7707 82.6149 16.568V14.536C83.2229 14.728 83.7829 14.8773 84.2949 14.984C84.8175 15.0907 85.3349 15.144 85.8469 15.144C86.3375 15.144 86.7695 15.0853 87.1429 14.968C87.5269 14.84 87.8469 14.6587 88.1029 14.424C88.3695 14.1787 88.5775 13.8747 88.7269 13.512C88.8762 13.1387 88.9615 12.712 88.9829 12.232H84.0229V10.248H88.9669C88.9562 9.8 88.8815 9.40533 88.7429 9.064C88.6042 8.712 88.4122 8.41867 88.1669 8.184C87.9215 7.93867 87.6282 7.752 87.2869 7.624C86.9562 7.496 86.5829 7.432 86.1669 7.432ZM103.256 1.816C103.203 2.37067 103.048 2.86133 102.792 3.288C102.536 3.704 102.136 4.02933 101.592 4.264C101.048 4.49867 100.318 4.616 99.4002 4.616C98.4616 4.616 97.7256 4.504 97.1922 4.28C96.6696 4.04533 96.2962 3.72 96.0722 3.304C95.8482 2.888 95.7149 2.392 95.6722 1.816H97.8002C97.8536 2.40267 98.0029 2.792 98.2482 2.984C98.4936 3.176 98.8936 3.272 99.4482 3.272C99.9069 3.272 100.28 3.17067 100.568 2.968C100.867 2.75467 101.043 2.37067 101.096 1.816H103.256ZM94.0562 5.576H96.2322V11.096C96.2322 11.3627 96.2269 11.6613 96.2162 11.992C96.2056 12.3227 96.1949 12.648 96.1842 12.968C96.1736 13.2773 96.1629 13.5493 96.1522 13.784C96.1416 14.008 96.1309 14.1627 96.1202 14.248H96.1682L101.448 5.576H104.344V17H102.184V11.512C102.184 11.224 102.19 10.9093 102.2 10.568C102.211 10.216 102.222 9.88 102.232 9.56C102.254 9.24 102.27 8.96267 102.28 8.728C102.302 8.48267 102.318 8.32267 102.328 8.248H102.264L96.9682 17H94.0562V5.576ZM107.388 17V5.576H114.604V7.576H109.804V9.96H110.764C111.841 9.96 112.721 10.1093 113.404 10.408C114.097 10.7067 114.609 11.1173 114.94 11.64C115.271 12.1627 115.436 12.76 115.436 13.432C115.436 14.1787 115.271 14.8187 114.94 15.352C114.609 15.8853 114.097 16.296 113.404 16.584C112.711 16.8613 111.815 17 110.716 17H107.388ZM110.62 15.016C111.356 15.016 111.932 14.8987 112.348 14.664C112.775 14.4293 112.988 14.0187 112.988 13.432C112.988 13.0267 112.881 12.7173 112.668 12.504C112.465 12.2907 112.172 12.1467 111.788 12.072C111.415 11.9867 110.961 11.944 110.428 11.944H109.804V15.016H110.62ZM117.751 5.576H119.927V11.096C119.927 11.3627 119.922 11.6613 119.911 11.992C119.901 12.3227 119.89 12.648 119.879 12.968C119.869 13.2773 119.858 13.5493 119.847 13.784C119.837 14.008 119.826 14.1627 119.815 14.248H119.863L125.143 5.576H128.039V17H125.879V11.512C125.879 11.224 125.885 10.9093 125.895 10.568C125.906 10.216 125.917 9.88 125.927 9.56C125.949 9.24 125.965 8.96267 125.975 8.728C125.997 8.48267 126.013 8.32267 126.023 8.248H125.959L120.663 17H117.751V5.576Z" fill="#00B4BF"/>
<defs>
<clipPath id="clip0_488_3108">
<rect width="24" height="24" fill="white"/>
</clipPath>
</defs>
</svg>
